<svg width="39" height="32" viewBox="0 0 39 32" fill="none" xmlns="http://www.w3.org/2000/svg">
<g clip-path="url(#clip0_258_581)">
<path d="M4.15889 31.4236C2.97433 31.4236 1.96532 31.0069 1.13188 30.1735C0.298435 29.34 -0.118286 28.331 -0.118286 27.1464V4.30449C-0.118286 3.1074 0.298435 2.08768 1.13188 1.24535C1.96532 0.402991 2.97433 -0.0181885 4.15889 -0.0181885H34.2811C35.4782 -0.0181885 36.498 0.402991 37.3403 1.24535C38.1826 2.08768 38.6038 3.1074 38.6038 4.30449V27.1464C38.6038 28.331 38.1826 29.34 37.3403 30.1735C36.498 31.0069 35.4782 31.4236 34.2811 31.4236H4.15889ZM19.22 17.5455C19.4324 17.5455 19.6295 17.5152 19.8115 17.4545C19.9936 17.3939 20.1928 17.3021 20.4094 17.1793L33.6441 8.30866C33.7958 8.23282 33.9399 8.08494 34.0764 7.86502C34.2129 7.64509 34.2811 7.3946 34.2811 7.11355C34.2811 6.5867 34.0309 6.15366 33.5304 5.81443C33.0298 5.47517 32.5217 5.48754 32.0061 5.85156L19.22 14.2239L6.47949 5.85156C5.9638 5.51788 5.44811 5.48754 4.93242 5.76055C4.41674 6.03356 4.15889 6.471 4.15889 7.07287C4.15889 7.34176 4.23473 7.5846 4.3864 7.8014C4.53807 8.01824 4.69261 8.18831 4.85002 8.31162L18.0316 17.1793C18.2475 17.3021 18.4465 17.3939 18.6285 17.4545C18.8105 17.5152 19.0077 17.5455 19.22 17.5455Z" fill="#DA0037"/>
</g>
<defs>
<clipPath id="clip0_258_581">
<rect width="38.44" height="31.4509" rx="4" fill="white"/>
</clipPath>
</defs>
</svg>
