<svg width="39" height="39" viewBox="0 0 39 39" fill="none" xmlns="http://www.w3.org/2000/svg">
<g clip-path="url(#clip0_1_317)">
<path fill-rule="evenodd" clip-rule="evenodd" d="M19.2199 0.800781C14.6573 0.803149 10.2442 2.41916 6.76986 5.35985C3.29552 8.30054 0.986446 12.3741 0.255529 16.8523C-0.475387 21.3304 0.419507 25.921 2.78021 29.8033C5.14092 33.6856 8.81349 36.6064 13.1412 38.0433C14.096 38.2206 14.4556 37.6288 14.4556 37.1257C14.4556 36.6225 14.4365 35.1637 14.4302 33.5688C9.08345 34.7238 7.95365 31.3125 7.95365 31.3125C7.08163 29.0974 5.82133 28.5151 5.82133 28.5151C4.07728 27.3316 5.95182 27.3538 5.95182 27.3538C7.88364 27.4899 8.89888 29.3253 8.89888 29.3253C10.6111 32.2461 13.3958 31.4011 14.4906 30.9075C14.6625 29.6702 15.1622 28.8284 15.7127 28.3506C11.4417 27.8696 6.95432 26.2304 6.95432 18.9078C6.92785 17.0088 7.63659 15.1723 8.93389 13.7782C8.73657 13.2972 8.07777 11.3543 9.12165 8.71511C9.12165 8.71511 10.7352 8.20246 14.4079 10.6739C17.5581 9.81733 20.8818 9.81733 24.032 10.6739C27.7015 8.20246 29.3118 8.71511 29.3118 8.71511C30.3589 11.3479 29.7001 13.2909 29.5028 13.7782C30.8042 15.1725 31.5144 17.0122 31.4855 18.9142C31.4855 26.2526 26.9886 27.8696 22.7112 28.3411C23.3986 28.936 24.0129 30.0974 24.0129 31.8821C24.0129 34.439 23.9906 36.4959 23.9906 37.1257C23.9906 37.6351 24.3375 38.2301 25.3114 38.0433C29.6396 36.6062 33.3125 33.6849 35.6732 29.802C38.0339 25.919 38.9283 21.3277 38.1965 16.8492C37.4648 12.3706 35.1546 8.29696 31.6791 5.35678C28.2036 2.41659 23.7895 0.801648 19.2263 0.800781H19.2199Z" fill="#DA0037"/>
<path d="M7.2785 28.2399C7.23712 28.3349 7.08436 28.3633 6.96024 28.2969C6.83612 28.2304 6.74383 28.107 6.78839 28.0089C6.83295 27.9108 6.98253 27.8855 7.10665 27.952C7.23077 28.0184 7.32624 28.145 7.2785 28.2399Z" fill="#DA0037"/>
<path d="M8.05824 29.1037C7.99234 29.1368 7.91693 29.146 7.84494 29.1298C7.77295 29.1136 7.70885 29.0731 7.66361 29.0151C7.53949 28.8822 7.51401 28.6987 7.60949 28.6164C7.70497 28.5341 7.87684 28.5721 8.00096 28.705C8.12508 28.8379 8.15372 29.0215 8.05824 29.1037Z" fill="#DA0037"/>
<path d="M8.81575 30.2019C8.698 30.2841 8.49748 30.2019 8.38609 30.0373C8.35529 30.0078 8.3308 29.9724 8.31407 29.9333C8.29733 29.8941 8.2887 29.852 8.2887 29.8095C8.2887 29.7669 8.29733 29.7248 8.31407 29.6857C8.3308 29.6465 8.35529 29.6112 8.38609 29.5816C8.50385 29.5025 8.70436 29.5816 8.81575 29.743C8.92714 29.9044 8.93032 30.1196 8.81575 30.2019V30.2019Z" fill="#DA0037"/>
<path d="M9.84368 31.2651C9.73866 31.3822 9.52543 31.3505 9.35039 31.1923C9.17535 31.0341 9.13397 30.8189 9.23899 30.705C9.34402 30.5911 9.55725 30.6227 9.73865 30.7778C9.92006 30.9328 9.95507 31.1512 9.84368 31.2651V31.2651Z" fill="#DA0037"/>
<path d="M11.2853 31.8853C11.2376 32.034 11.0212 32.1005 10.8048 32.0372C10.5884 31.9739 10.4451 31.7967 10.4865 31.6448C10.5279 31.4929 10.7475 31.4233 10.9671 31.4929C11.1867 31.5625 11.3267 31.7302 11.2853 31.8853Z" fill="#DA0037"/>
<path d="M12.8576 31.9929C12.8576 32.1479 12.6794 32.2809 12.4502 32.284C12.2211 32.2872 12.0333 32.1606 12.0333 32.0055C12.0333 31.8505 12.2115 31.7176 12.4407 31.7144C12.6698 31.7113 12.8576 31.8347 12.8576 31.9929Z" fill="#DA0037"/>
<path d="M14.3216 31.7492C14.3502 31.9043 14.1911 32.0657 13.9619 32.1036C13.7328 32.1416 13.5323 32.0498 13.5037 31.8979C13.475 31.7461 13.6405 31.5815 13.8633 31.5404C14.0861 31.4992 14.2929 31.5942 14.3216 31.7492Z" fill="#DA0037"/>
</g>
<defs>
<clipPath id="clip0_1_317">
<rect width="38.439" height="38.439" fill="white"/>
</clipPath>
</defs>
</svg>
