<svg width="39" height="39" viewBox="0 0 39 39" fill="none" xmlns="http://www.w3.org/2000/svg">
<g clip-path="url(#clip0_1_280)">
<path d="M35.5936 0H2.83788C1.26879 0 0 1.23876 0 2.77031V35.6612C0 37.1928 1.26879 38.439 2.83788 38.439H35.5936C37.1627 38.439 38.439 37.1928 38.439 35.6687V2.77031C38.439 1.23876 37.1627 0 35.5936 0ZM11.4041 32.7558H5.69829V14.4071H11.4041V32.7558ZM8.55118 11.9071C6.71932 11.9071 5.24032 10.4281 5.24032 8.60373C5.24032 6.77938 6.71932 5.30038 8.55118 5.30038C10.3755 5.30038 11.8545 6.77938 11.8545 8.60373C11.8545 10.4206 10.3755 11.9071 8.55118 11.9071ZM32.7558 32.7558H27.0575V23.8367C27.0575 21.712 27.0199 18.9718 24.092 18.9718C21.1264 18.9718 20.676 21.2916 20.676 23.6865V32.7558H14.9852V14.4071H20.4508V16.9147H20.5258C21.2841 15.4732 23.146 13.9492 25.9163 13.9492C31.6897 13.9492 32.7558 17.748 32.7558 22.688V32.7558V32.7558Z" fill="#DA0037"/>
</g>
<defs>
<clipPath id="clip0_1_280">
<rect width="38.439" height="38.439" fill="white"/>
</clipPath>
</defs>
</svg>
